<svg id="Camada_1" data-name="Camada 1" xmlns="http://www.w3.org/2000/svg" viewBox="0 0 538.47 139.4"><defs><style>.cls-1{fill:#fff;}</style></defs><title>Prancheta 1</title><path class="cls-1" d="M126.92,101.17c5.41,5.62,11.87,7.33,16.94,4.8,4.68-2.33,6.27-6.44,5-13-13.47,7.54-25.23,5.88-33.07-4.65a24.61,24.61,0,0,1,2.44-31.95c8.49-8.28,20.63-8.93,30.65-1.3L150,51h12.84c.14,1.37.37,2.63.37,3.9,0,13.32.08,26.64,0,40-.07,12.45-5.41,19.74-16.63,23-13,3.78-24.32.16-30.89-10.1ZM137.63,85c6.83.15,11.79-4.58,11.83-11.28a11.84,11.84,0,0,0-11.25-12.2A12.09,12.09,0,0,0,125.62,73C125.41,79.45,130.8,84.85,137.63,85Z"/><path class="cls-1" d="M487.26,98.36H473.6V76.53c0-2.33.1-4.68-.08-7-.3-3.9-2.06-6.67-6.33-7s-7.22,1.72-7.95,5.88a69.76,69.76,0,0,0-.64,10.93c-.09,6.15,0,12.31,0,18.84H444.7c0-6.77,0-13.7,0-20.62,0-2.67,0-5.34-.1-8-.22-4.23-2.2-6.93-6.74-7-4.69-.11-7.27,2.59-7.59,6.91-.44,5.8-.26,11.65-.31,17.48,0,3.64,0,7.28,0,11.29H416.57V50.64c4.77,1.54,10.28-2.56,13.8,2.53,4.13-1.14,8.47-3.35,12.74-3.23s8.49,2.55,12.63,3.93c4.09-1.28,8.72-3.7,13.49-4,10.12-.68,17.36,5.83,17.9,16C487.69,76.51,487.26,87.18,487.26,98.36Z"/><path class="cls-1" d="M270.07,94.58v22.86H256.59V51.58c8-2.06,12.72-1.18,14.11,3.13,5.28-4.67,11.63-6.67,18-4.38A33.71,33.71,0,0,1,302.14,59c7.83,8.9,6.9,24.48-1,33.14C293.16,101,281.89,102.1,270.07,94.58Zm.19-20.28a11.67,11.67,0,0,0,11,12.42,11.62,11.62,0,1,0,.91-23.22C275.59,63.32,270.51,67.93,270.26,74.3Z"/><path class="cls-1" d="M80.83,49.56a24.91,24.91,0,0,1,24.53,25.57c-.17,14.05-11.6,24.87-26,24.63a25.11,25.11,0,1,1,1.45-50.2ZM91.46,75.07A11.58,11.58,0,0,0,80,63.66a11.33,11.33,0,1,0,11.5,11.41Z"/><path class="cls-1" d="M197.33,49.57a25.1,25.1,0,1,1-.6,50.19,24.79,24.79,0,0,1-25-25.1A25.06,25.06,0,0,1,197.33,49.57Zm11,25.24a11.32,11.32,0,1,0-10.85,11.47A11.29,11.29,0,0,0,208.38,74.81Z"/><path class="cls-1" d="M390.92,51h13.17V98.71c-4.82-1.53-10.58,2.8-13.69-2.38-4.85,1.17-9.49,3.12-14.18,3.24-9.19.22-16.08-5.93-16.62-15.14-.63-10.93-.15-21.92-.15-33.24H373V72.42c0,2-.08,4,0,6,.29,5.49,3.18,8.4,8.35,8.5,5.61.12,9-2.53,9.34-8.09.38-7,.19-14,.24-20.95C390.93,55.73,390.92,53.59,390.92,51Z"/><path class="cls-1" d="M311.72,88.78l10.35-5.88c3.81,1.76,6.87,3.64,10.2,4.49,1.39.36,3.33-1.49,5-2.34-1.26-1.29-2.29-3.12-3.82-3.78-4-1.71-8.34-2.47-12.17-4.38-9.91-5-10.38-18.06-1.06-24,9.94-6.34,23.35-3.63,30.45,6.63l-10.39,5.73c-3.24-1.35-5.8-2.73-8.53-3.38-.92-.22-2.28,1.4-3.44,2.18.8,1.09,1.39,2.72,2.46,3.16,2.91,1.19,6,1.81,9,2.79q13.19,4.29,11.9,16.09c-.8,7.51-6.32,12.43-15,13.48C326.62,100.78,317.81,99,311.72,88.78Z"/><path class="cls-1" d="M45.8,98.28H32.66V29.07H45.8Z"/><path class="cls-1" d="M244.32,98.34H231.24V51h13.08Z"/><path class="cls-1" d="M500.08,50a10.34,10.34,0,1,1,10.3-10.41A10.13,10.13,0,0,1,500.08,50Z"/><path class="cls-1" d="M238.08,29.49a8.15,8.15,0,0,1,8.21,8.19,8.39,8.39,0,1,1-16.78-.36A8.2,8.2,0,0,1,238.08,29.49Z"/></svg>